<svg width="218" height="84" viewBox="0 0 218 84" fill="none" xmlns="http://www.w3.org/2000/svg">
<path d="M0.694614 49.0958C0.694614 53.7832 0.528099 58.8202 0.357422 61.5511H11.3599L11.8761 55.7481H12.0426C14.9441 60.6935 19.723 62.5002 24.5853 62.5002C34.139 62.5002 43.6095 54.9779 43.6095 39.9625C43.697 27.1617 36.4453 18.8901 26.4586 18.8901C20.6597 18.8901 16.3053 21.1963 13.8326 24.7764H13.6661V0.885742H0.694614V49.0916V49.0958ZM13.6661 37.6604C13.6622 36.8556 13.7474 36.0529 13.92 35.2668C14.7734 31.5161 18.0163 28.8726 21.5172 28.8726C27.57 28.8726 30.4715 33.9888 30.4715 40.4704C30.4715 47.9802 27.058 52.2513 21.5172 52.2513C17.7623 52.2513 14.7734 49.5204 13.92 46.1069C13.7425 45.3512 13.6572 44.5768 13.6661 43.8007V37.6604ZM45.5203 61.5511H58.4876V0.885742H45.5203V61.5511ZM75.7468 61.5511V19.8309H62.7837V61.5511H75.7468ZM69.3527 1.74329C65.169 1.74329 62.4423 4.55322 62.4423 8.22486C62.4423 11.8049 65.0857 14.7064 69.1778 14.7064C73.5322 14.7064 76.1756 11.8049 76.1756 8.22486C76.0923 4.55322 73.5322 1.74329 69.3485 1.74329H69.3527ZM79.9555 61.5511H92.9269V37.4898C92.8766 36.3936 93.0204 35.2972 93.3515 34.2511C94.2882 31.8616 96.4237 29.3847 100.008 29.3847C104.7 29.3847 106.577 33.0522 106.577 38.4264V61.5511H119.544V36.8903C119.544 24.6057 113.146 18.8901 104.612 18.8901C97.6185 18.8901 93.439 22.8989 91.728 25.6298H91.4783L90.8788 19.8309H79.6183C79.7848 23.5816 79.9555 27.936 79.9555 33.1354V61.5511ZM163.254 32.2862C163.254 26.0585 163.429 22.5576 163.6 19.8309H152.335L151.906 24.868H151.74C149.608 21.3712 146.02 18.8901 140.309 18.8901C129.985 18.8901 121.368 27.424 121.368 40.8991C121.368 52.8465 128.707 61.2056 139.026 61.2056C143.801 61.2056 147.818 59.249 150.291 55.8355H150.458V58.4789C150.458 66.2551 145.766 69.5021 139.626 69.5021C135.385 69.4783 131.219 68.3905 127.508 66.3384L124.952 76.2418C128.703 78.2858 134.418 79.3973 139.967 79.3973C146.107 79.3973 152.335 78.1983 156.86 74.2769C161.635 70.0933 163.254 63.5284 163.254 55.49V32.2862ZM150.291 42.9514C150.322 44.1318 150.178 45.3103 149.862 46.4482C149.446 47.9566 148.543 49.2849 147.293 50.2261C146.043 51.1674 144.517 51.6686 142.952 51.6518C137.578 51.6518 134.506 46.7854 134.506 40.5578C134.506 32.9689 138.26 28.702 143.039 28.702C146.619 28.702 149.101 31.004 150.037 34.4176C150.205 35.2017 150.29 36.0011 150.291 36.8029V42.9514Z" fill="#0BD692"/>
<path d="M217.64 6.43509C213.297 10.7145 208.743 16.7756 203.978 24.6185C199.244 32.393 195.15 40.5403 191.739 48.9795C189.968 53.3335 188.479 57.797 187.281 62.3423C185.357 62.123 182.949 61.9149 180.054 61.7179C177.443 61.5396 174.824 61.5271 172.211 61.6804C171.534 53.1798 172.286 43.2819 174.467 31.9867C175.727 25.476 177.17 20.2169 178.797 16.2095C179.829 13.6535 180.87 11.7969 181.911 10.6063C177.252 9.50728 173.905 8.77878 171.836 8.44159C171.836 7.30513 172.407 5.3694 173.531 2.60526C173.862 1.7628 174.263 0.949586 174.73 0.174147C174.809 -0.0215074 175.013 -0.0506474 175.342 0.0784013C175.392 0.0950527 175.65 0.224101 176.078 0.436407C176.528 0.652876 176.849 0.802739 177.077 0.894322C181.199 2.56502 187.809 3.95541 196.909 5.06551C205.707 6.1201 212.53 6.43092 217.378 5.99799C217.462 6.03461 217.533 6.09622 217.58 6.17444C217.628 6.25266 217.65 6.34368 217.645 6.43509H217.64ZM186.065 80.0553C185.316 81.8994 182.585 82.9609 177.898 83.2648C173.882 83.4941 169.854 83.1833 165.921 82.3407C164.511 82.0592 163.128 81.6509 161.791 81.1209C158.711 79.8776 156.509 78.0848 155.185 75.7425C153.87 73.4058 153.635 71.1939 154.481 69.1069C155.456 66.7008 158.49 65.5685 163.581 65.7766C167.681 65.9369 171.723 66.7957 175.533 68.316C179.521 69.9395 182.481 71.928 184.412 74.2814C186.194 76.4211 186.752 78.361 186.065 80.0553Z" fill="#0BD692"/>
</svg>
