<svg width="320" height="43" viewBox="0 0 320 43" fill="none" xmlns="http://www.w3.org/2000/svg">
<g clip-path="url(#clip0_237_1028)">
<path d="M54.4615 9.86803C44.5737 9.86803 38.1532 17.532 38.1532 26.3972C38.1532 35.6628 44.3165 42.9952 54.4615 42.9952C64.2205 42.9952 70.641 35.1979 70.641 26.3972C70.641 17.2005 64.4777 9.86803 54.4615 9.86803ZM54.3993 35.1979C49.3267 35.1979 46.9502 30.9311 46.9502 26.3972C46.9502 21.9323 49.3267 17.6655 54.4615 17.6655C59.5338 17.6655 61.844 21.8634 61.844 26.3972C61.844 30.9311 59.5338 35.1979 54.3993 35.1979ZM34.1468 32.4552L29.7959 28.9978C27.7428 32.2658 24.4664 34.4616 19.9704 34.4616C13.0357 34.4616 9.05409 28.7954 9.05409 21.463C9.05409 14.3975 12.65 8.53329 20.1612 8.53329C24.5286 8.53329 27.4816 10.5311 29.4725 13.799L33.8689 10.2943C34.8809 9.48483 35.1091 7.98217 34.3583 6.90579C31.0029 2.08782 25.777 0.00390625 20.099 0.00390625C6.35819 0.00390625 0 10.6689 0 21.4673C0 34.2636 7.32042 42.9995 19.9704 42.9995C26.0052 42.9995 31.3305 40.7478 34.6528 35.8264C35.3828 34.7457 35.1505 33.256 34.1468 32.4552ZM93.6143 9.86803C89.251 9.86803 85.7837 11.8012 83.4735 14.9314C83.4072 14.066 83.2787 13.2006 83.0879 12.2662C82.702 11.1339 81.8684 10.6 80.5205 10.6H75.3775V42.2633H84.1745V27.198C84.1745 20.7999 87.1275 17.6655 91.4949 17.6655C94.9622 17.6655 96.8868 19.7967 96.8868 24.1971V42.2633H105.684V24.5329C105.688 14.7979 101.321 9.86803 93.6143 9.86803ZM127.865 34.9523C127.359 35.1031 126.828 35.2022 126.293 35.2022C122.763 35.2022 120.772 33.0708 120.772 28.5372V18.208H128.64C129.951 18.208 131.017 17.1014 131.017 15.7409V10.6129H120.777V6.07049C120.777 4.70992 119.711 3.60339 118.4 3.60339H111.984V28.2013C111.984 37.3551 115.866 42.9952 123.626 42.9952C128.168 42.9952 131.349 40.9544 132.809 39.7705L130.519 36.003C129.955 35.0859 128.877 34.6468 127.865 34.9523ZM150.27 9.86803C145.425 9.86803 141.751 10.8067 138.118 13.3857C136.931 14.2296 136.707 15.9561 137.612 17.1186L140.058 20.266C143.269 17.6655 145.965 17.1316 149.113 17.1316C153.223 17.1316 155.919 19.3963 155.919 24.3306V24.731C153.48 23.7966 150.718 23.3316 147.636 23.3316C138.777 23.3316 135.115 28.2658 135.115 33.3293C135.115 38.2633 138.263 42.9952 146.222 42.9952C151.294 42.9952 154.7 40.722 156.753 37.7898C156.819 38.6553 156.885 39.5206 157.076 40.4549C157.333 41.7208 158.295 42.2547 159.643 42.2547H164.201V24.7998C164.206 14.4018 158.038 9.86803 150.27 9.86803ZM155.599 30.3325C155.085 33.734 152.451 36.3302 147.703 36.3302C145.069 36.3302 143.273 35.2624 143.273 32.8642C143.273 30.3325 145.006 29.0666 149.117 29.0666C151.556 29.0666 153.546 29.3982 155.666 29.9321L155.599 30.3325ZM242.321 34.664H228.451L242.827 18.2726C243.66 17.3382 243.983 16.4728 243.983 15.207V13.0757L243.992 10.6H220.297C218.821 10.6 217.925 11.4654 217.925 13.0628V18.1951H233.08L218.767 34.5863C217.933 35.4518 217.547 36.3173 217.547 37.5875V42.2633H244.701V37.131C244.692 35.5295 243.796 34.664 242.321 34.664ZM276.538 10.6H269.811V25.7298C269.811 32.1279 267.048 35.1936 262.685 35.1936C259.347 35.1936 257.485 33.0622 257.485 28.7266V12.7442C257.485 11.5558 256.559 10.5957 255.415 10.5957H248.686V28.3951C248.686 37.9922 252.989 42.9952 260.565 42.9952C264.801 42.9952 268.139 41.0621 270.515 37.9965C270.582 38.7972 270.706 39.7272 270.902 40.5282C271.22 41.7294 272.12 42.259 273.469 42.259H278.612V12.7442C278.607 11.5601 277.682 10.6 276.538 10.6ZM291.228 0.68419H284.811V39.7963C284.811 41.1567 285.877 42.2633 287.19 42.2633H293.606V3.15129C293.601 1.79073 292.54 0.68419 291.228 0.68419ZM198.166 0.666966H189.925L174.321 42.2633H183.309L186.714 32.3303H203.022L206.49 42.2633H215.735L200.92 2.60017C200.476 1.26975 199.514 0.666966 198.166 0.666966ZM189.153 24.5329L194.868 8.53329L200.584 24.5329H189.153Z" fill="#2687E9"/>
<path d="M309.656 13.2828C308.615 12.6671 307.802 11.8189 307.222 10.7382C306.64 9.65744 306.35 8.43897 306.35 7.08702C306.35 5.75658 306.654 4.55532 307.254 3.48324C307.855 2.41113 308.673 1.56293 309.706 0.938621C310.738 0.314309 311.896 0 313.178 0C314.479 0 315.653 0.301392 316.693 0.904175C317.736 1.50696 318.549 2.35085 319.129 3.43157C319.709 4.51225 319.999 5.73075 319.999 7.0827C319.999 8.41314 319.702 9.62302 319.099 10.7037C318.498 11.7844 317.681 12.6412 316.649 13.2655C315.616 13.8899 314.458 14.1999 313.178 14.1999C311.87 14.2042 310.696 13.8985 309.656 13.2828ZM315.837 11.8318C316.629 11.3539 317.25 10.6994 317.702 9.86413C318.155 9.03313 318.378 8.10744 318.378 7.08702C318.378 6.04506 318.157 5.11504 317.715 4.29267C317.276 3.47032 316.656 2.82448 315.864 2.35516C315.072 1.88585 314.177 1.65335 313.173 1.65335C312.211 1.65335 311.331 1.89446 310.544 2.37238C309.752 2.8503 309.126 3.50906 308.666 4.34004C308.205 5.17101 307.973 6.08811 307.973 7.08702C307.973 8.12896 308.196 9.06328 308.647 9.89425C309.101 10.7253 309.722 11.3754 310.514 11.8447C311.306 12.314 312.195 12.5465 313.178 12.5465C314.156 12.5508 315.043 12.314 315.837 11.8318ZM313.265 3.56073C314.147 3.56073 314.833 3.7631 315.326 4.16782C315.816 4.57255 316.065 5.16241 316.065 5.93312C316.065 6.80716 315.673 7.453 314.891 7.87063L316.666 10.4281H314.741L313.268 8.24093C313.169 8.26245 313.014 8.27105 312.816 8.27105H312.273V10.4238H310.68V3.55643H313.265V3.56073ZM314.437 5.93312C314.437 5.64033 314.343 5.43367 314.152 5.3088C313.961 5.18394 313.638 5.12367 313.173 5.12367H312.268V6.71672H313.173C314.016 6.71242 314.437 6.45409 314.437 5.93312Z" fill="#2687E9"/>
<ellipse cx="313.83" cy="6.40396" rx="9.69697" ry="8.23404" fill="#020203"/>
</g>
<defs>
<clipPath id="clip0_237_1028">
<rect width="320" height="43" fill="white"/>
</clipPath>
</defs>
</svg>
